<?xml version="1.0" encoding="UTF-8" standalone="no"?>
<!DOCTYPE svg PUBLIC "-//W3C//DTD SVG 1.1//EN"
 "http://www.w3.org/Graphics/SVG/1.1/DTD/svg11.dtd">
<!-- Generated by graphviz version 13.1.0 (20250701.0955)
 -->
<!-- Title: G Pages: 1 -->
<svg width="1476pt" height="301pt"
 viewBox="0.00 0.00 1476.00 301.00" xmlns="http://www.w3.org/2000/svg" xmlns:xlink="http://www.w3.org/1999/xlink">
<g id="graph0" class="graph" transform="scale(1 1) rotate(0) translate(4 297)">
<title>G</title>
<polygon fill="white" stroke="none" points="-4,4 -4,-297 1471.75,-297 1471.75,4 -4,4"/>
<g id="clust1" class="cluster">
<title>cluster_module.ci_build_farm</title>
<polygon fill="none" stroke="black" points="8,-46 8,-249 1422.12,-249 1422.12,-46 8,-46"/>
<text xml:space="preserve" text-anchor="middle" x="715.06" y="-231.7" font-family="sans-serif" font-size="14.00">module.ci_build_farm</text>
</g>
<!-- data.aws_subnets.default -->
<g id="node1" class="node">
<title>data.aws_subnets.default</title>
<polygon fill="none" stroke="black" points="1064.75,-37 895.75,-37 895.75,-1 1064.75,-1 1064.75,-37"/>
<text xml:space="preserve" text-anchor="middle" x="980.25" y="-13.2" font-family="sans-serif" font-size="14.00">data.aws_subnets.default</text>
</g>
<!-- data.aws_vpc.default -->
<g id="node2" class="node">
<title>data.aws_vpc.default</title>
<polygon fill="none" stroke="black" points="756.25,-36 613.5,-36 613.5,0 756.25,0 756.25,-36"/>
<text xml:space="preserve" text-anchor="middle" x="684.88" y="-12.2" font-family="sans-serif" font-size="14.00">data.aws_vpc.default</text>
</g>
<!-- data.aws_subnets.default&#45;&gt;data.aws_vpc.default -->
<g id="edge1" class="edge">
<title>data.aws_subnets.default&#45;&gt;data.aws_vpc.default</title>
<path fill="none" stroke="black" d="M895.57,-18.71C855.56,-18.58 807.83,-18.42 768.02,-18.28"/>
<polygon fill="black" stroke="black" points="768.27,-14.78 758.26,-18.25 768.25,-21.78 768.27,-14.78"/>
</g>
<!-- aws_iam_policy.tf_state_access -->
<g id="node3" class="node">
<title>aws_iam_policy.tf_state_access</title>
<polygon fill="none" stroke="black" points="1084.62,-293 875.88,-293 875.88,-257 1084.62,-257 1084.62,-293"/>
<text xml:space="preserve" text-anchor="middle" x="980.25" y="-269.2" font-family="sans-serif" font-size="14.00">aws_iam_policy.tf_state_access</text>
</g>
<!-- aws_iam_user_policy_attachment.attach_tf_state -->
<g id="node4" class="node">
<title>aws_iam_user_policy_attachment.attach_tf_state</title>
<polygon fill="none" stroke="black" points="1467.75,-293 1154.75,-293 1154.75,-257 1467.75,-257 1467.75,-293"/>
<text xml:space="preserve" text-anchor="middle" x="1311.25" y="-269.2" font-family="sans-serif" font-size="14.00">aws_iam_user_policy_attachment.attach_tf_state</text>
</g>
<!-- aws_iam_user_policy_attachment.attach_tf_state&#45;&gt;aws_iam_policy.tf_state_access -->
<g id="edge2" class="edge">
<title>aws_iam_user_policy_attachment.attach_tf_state&#45;&gt;aws_iam_policy.tf_state_access</title>
<path fill="none" stroke="black" d="M1154.42,-275C1134.8,-275 1115.01,-275 1096.18,-275"/>
<polygon fill="black" stroke="black" points="1096.41,-271.5 1086.41,-275 1096.41,-278.5 1096.41,-271.5"/>
</g>
<!-- module.ci_build_farm.data.aws_ami.amazon_linux -->
<g id="node5" class="node">
<title>module.ci_build_farm.data.aws_ami.amazon_linux</title>
<polygon fill="none" stroke="black" points="778.75,-90 591,-90 591,-54 778.75,-54 778.75,-90"/>
<text xml:space="preserve" text-anchor="middle" x="684.88" y="-66.2" font-family="sans-serif" font-size="14.00">data.aws_ami.amazon_linux</text>
</g>
<!-- module.ci_build_farm.data.aws_iam_policy_document.ec2_assume_role -->
<g id="node6" class="node">
<title>module.ci_build_farm.data.aws_iam_policy_document.ec2_assume_role</title>
<polygon fill="none" stroke="black" points="336.5,-181 16,-181 16,-145 336.5,-145 336.5,-181"/>
<text xml:space="preserve" text-anchor="middle" x="176.25" y="-157.2" font-family="sans-serif" font-size="14.00">data.aws_iam_policy_document.ec2_assume_role</text>
</g>
<!-- module.ci_build_farm.data.aws_iam_policy_document.ec2_policy -->
<g id="node7" class="node">
<title>module.ci_build_farm.data.aws_iam_policy_document.ec2_policy</title>
<polygon fill="none" stroke="black" points="1118.75,-198 841.75,-198 841.75,-162 1118.75,-162 1118.75,-198"/>
<text xml:space="preserve" text-anchor="middle" x="980.25" y="-174.2" font-family="sans-serif" font-size="14.00">data.aws_iam_policy_document.ec2_policy</text>
</g>
<!-- module.ci_build_farm.aws_sqs_queue.job_queue -->
<g id="node13" class="node">
<title>module.ci_build_farm.aws_sqs_queue.job_queue</title>
<polygon fill="none" stroke="black" points="775,-198 594.75,-198 594.75,-162 775,-162 775,-198"/>
<text xml:space="preserve" text-anchor="middle" x="684.88" y="-174.2" font-family="sans-serif" font-size="14.00">aws_sqs_queue.job_queue</text>
</g>
<!-- module.ci_build_farm.data.aws_iam_policy_document.ec2_policy&#45;&gt;module.ci_build_farm.aws_sqs_queue.job_queue -->
<g id="edge3" class="edge">
<title>module.ci_build_farm.data.aws_iam_policy_document.ec2_policy&#45;&gt;module.ci_build_farm.aws_sqs_queue.job_queue</title>
<path fill="none" stroke="black" d="M841.58,-180C823.14,-180 804.51,-180 786.86,-180"/>
<polygon fill="black" stroke="black" points="786.93,-176.5 776.93,-180 786.93,-183.5 786.93,-176.5"/>
</g>
<!-- module.ci_build_farm.aws_autoscaling_group.agents -->
<g id="node8" class="node">
<title>module.ci_build_farm.aws_autoscaling_group.agents</title>
<polygon fill="none" stroke="black" points="1412.25,-127 1210.25,-127 1210.25,-91 1412.25,-91 1412.25,-127"/>
<text xml:space="preserve" text-anchor="middle" x="1311.25" y="-103.2" font-family="sans-serif" font-size="14.00">aws_autoscaling_group.agents</text>
</g>
<!-- module.ci_build_farm.aws_autoscaling_group.agents&#45;&gt;data.aws_subnets.default -->
<g id="edge4" class="edge">
<title>module.ci_build_farm.aws_autoscaling_group.agents&#45;&gt;data.aws_subnets.default</title>
<path fill="none" stroke="black" d="M1264.49,-90.51C1226.12,-75.6 1169.59,-55.04 1118.75,-42 1105.02,-38.48 1090.37,-35.36 1075.95,-32.65"/>
<polygon fill="black" stroke="black" points="1076.94,-29.28 1066.47,-30.93 1075.69,-36.16 1076.94,-29.28"/>
</g>
<!-- module.ci_build_farm.aws_launch_template.agent_lt -->
<g id="node12" class="node">
<title>module.ci_build_farm.aws_launch_template.agent_lt</title>
<polygon fill="none" stroke="black" points="1079.75,-144 880.75,-144 880.75,-108 1079.75,-108 1079.75,-144"/>
<text xml:space="preserve" text-anchor="middle" x="980.25" y="-120.2" font-family="sans-serif" font-size="14.00">aws_launch_template.agent_lt</text>
</g>
<!-- module.ci_build_farm.aws_autoscaling_group.agents&#45;&gt;module.ci_build_farm.aws_launch_template.agent_lt -->
<g id="edge5" class="edge">
<title>module.ci_build_farm.aws_autoscaling_group.agents&#45;&gt;module.ci_build_farm.aws_launch_template.agent_lt</title>
<path fill="none" stroke="black" d="M1209.75,-114.19C1172.26,-116.13 1129.51,-118.34 1091.21,-120.32"/>
<polygon fill="black" stroke="black" points="1091.32,-116.81 1081.51,-120.82 1091.68,-123.8 1091.32,-116.81"/>
</g>
<!-- module.ci_build_farm.aws_iam_instance_profile.ec2_profile -->
<g id="node9" class="node">
<title>module.ci_build_farm.aws_iam_instance_profile.ec2_profile</title>
<polygon fill="none" stroke="black" points="805.75,-144 564,-144 564,-108 805.75,-108 805.75,-144"/>
<text xml:space="preserve" text-anchor="middle" x="684.88" y="-120.2" font-family="sans-serif" font-size="14.00">aws_iam_instance_profile.ec2_profile</text>
</g>
<!-- module.ci_build_farm.aws_iam_role.ec2_role -->
<g id="node10" class="node">
<title>module.ci_build_farm.aws_iam_role.ec2_role</title>
<polygon fill="none" stroke="black" points="528,-181 372.5,-181 372.5,-145 528,-145 528,-181"/>
<text xml:space="preserve" text-anchor="middle" x="450.25" y="-157.2" font-family="sans-serif" font-size="14.00">aws_iam_role.ec2_role</text>
</g>
<!-- module.ci_build_farm.aws_iam_instance_profile.ec2_profile&#45;&gt;module.ci_build_farm.aws_iam_role.ec2_role -->
<g id="edge6" class="edge">
<title>module.ci_build_farm.aws_iam_instance_profile.ec2_profile&#45;&gt;module.ci_build_farm.aws_iam_role.ec2_role</title>
<path fill="none" stroke="black" d="M567.56,-144.5C558.11,-146 548.67,-147.51 539.47,-148.97"/>
<polygon fill="black" stroke="black" points="539.21,-145.47 529.88,-150.49 540.31,-152.38 539.21,-145.47"/>
</g>
<!-- module.ci_build_farm.aws_iam_role.ec2_role&#45;&gt;module.ci_build_farm.data.aws_iam_policy_document.ec2_assume_role -->
<g id="edge7" class="edge">
<title>module.ci_build_farm.aws_iam_role.ec2_role&#45;&gt;module.ci_build_farm.data.aws_iam_policy_document.ec2_assume_role</title>
<path fill="none" stroke="black" d="M372.03,-163C364.31,-163 356.28,-163 348.06,-163"/>
<polygon fill="black" stroke="black" points="348.27,-159.5 338.27,-163 348.27,-166.5 348.27,-159.5"/>
</g>
<!-- module.ci_build_farm.aws_iam_role_policy.ec2_inline -->
<g id="node11" class="node">
<title>module.ci_build_farm.aws_iam_role_policy.ec2_inline</title>
<polygon fill="none" stroke="black" points="1414.12,-208 1208.38,-208 1208.38,-172 1414.12,-172 1414.12,-208"/>
<text xml:space="preserve" text-anchor="middle" x="1311.25" y="-184.2" font-family="sans-serif" font-size="14.00">aws_iam_role_policy.ec2_inline</text>
</g>
<!-- module.ci_build_farm.aws_iam_role_policy.ec2_inline&#45;&gt;module.ci_build_farm.data.aws_iam_policy_document.ec2_policy -->
<g id="edge8" class="edge">
<title>module.ci_build_farm.aws_iam_role_policy.ec2_inline&#45;&gt;module.ci_build_farm.data.aws_iam_policy_document.ec2_policy</title>
<path fill="none" stroke="black" d="M1207.96,-186.89C1183.36,-186.14 1156.6,-185.33 1130.35,-184.53"/>
<polygon fill="black" stroke="black" points="1130.76,-181.04 1120.66,-184.24 1130.55,-188.04 1130.76,-181.04"/>
</g>
<!-- module.ci_build_farm.aws_iam_role_policy.ec2_inline&#45;&gt;module.ci_build_farm.aws_iam_role.ec2_role -->
<g id="edge9" class="edge">
<title>module.ci_build_farm.aws_iam_role_policy.ec2_inline&#45;&gt;module.ci_build_farm.aws_iam_role.ec2_role</title>
<path fill="none" stroke="black" d="M1208,-200.76C1179.17,-203.34 1147.76,-205.71 1118.75,-207 872.44,-217.91 806.3,-252.6 564,-207 541.87,-202.84 518.51,-194.45 498.83,-186.1"/>
<polygon fill="black" stroke="black" points="500.26,-182.91 489.69,-182.1 497.45,-189.32 500.26,-182.91"/>
</g>
<!-- module.ci_build_farm.aws_launch_template.agent_lt&#45;&gt;module.ci_build_farm.data.aws_ami.amazon_linux -->
<g id="edge10" class="edge">
<title>module.ci_build_farm.aws_launch_template.agent_lt&#45;&gt;module.ci_build_farm.data.aws_ami.amazon_linux</title>
<path fill="none" stroke="black" d="M880.34,-107.79C851.28,-102.44 819.41,-96.58 790.04,-91.17"/>
<polygon fill="black" stroke="black" points="790.87,-87.77 780.4,-89.4 789.6,-94.65 790.87,-87.77"/>
</g>
<!-- module.ci_build_farm.aws_launch_template.agent_lt&#45;&gt;module.ci_build_farm.aws_iam_instance_profile.ec2_profile -->
<g id="edge11" class="edge">
<title>module.ci_build_farm.aws_launch_template.agent_lt&#45;&gt;module.ci_build_farm.aws_iam_instance_profile.ec2_profile</title>
<path fill="none" stroke="black" d="M880.34,-126C860.17,-126 838.66,-126 817.56,-126"/>
<polygon fill="black" stroke="black" points="817.75,-122.5 807.75,-126 817.75,-129.5 817.75,-122.5"/>
</g>
<!-- module.ci_build_farm.aws_launch_template.agent_lt&#45;&gt;module.ci_build_farm.aws_sqs_queue.job_queue -->
<g id="edge12" class="edge">
<title>module.ci_build_farm.aws_launch_template.agent_lt&#45;&gt;module.ci_build_farm.aws_sqs_queue.job_queue</title>
<path fill="none" stroke="black" d="M880.34,-144.21C850.11,-149.77 816.85,-155.89 786.52,-161.48"/>
<polygon fill="black" stroke="black" points="786.17,-157.98 776.97,-163.23 787.44,-164.86 786.17,-157.98"/>
</g>
</g>
</svg>
